<?xml version="1.0" encoding="utf-8"?>
<!-- Generator: Adobe Illustrator 17.1.0, SVG Export Plug-In . SVG Version: 6.00 Build 0)  -->
<!DOCTYPE svg PUBLIC "-//W3C//DTD SVG 1.1//EN" "http://www.w3.org/Graphics/SVG/1.1/DTD/svg11.dtd">
<svg version="1.1" xmlns="http://www.w3.org/2000/svg" xmlns:xlink="http://www.w3.org/1999/xlink" x="0px" y="0px"
	 viewBox="0 0 300 300" enable-background="new 0 0 300 300" xml:space="preserve">
<g id="Layer_1" display="none">
	
		<image display="inline" overflow="visible" opacity="0.15" width="4128" height="2322" xlink:href="../Dropbox/photos/Cloud Up/20140528_145615.jpg"  transform="matrix(0.1332 0 0 0.1573 -106 -32.582)">
	</image>
</g>
<g id="Layer_2">
	<g>
		<path d="M74.1,18.2c-5.3,1-9.3,5.8-12.6,9.7c-5.8,6.8-8.3,16.2-9,24.9c-0.8,11.8,13.3,17.9,23.6,14.4c12.1-4.1,27.2-19.8,24-33.7
			c-2.8-12-15.7-17.8-27.2-14.7c-2.1,0.6,4.3,2.8,6,2.4c14.1-3.8,15.7,15.4,12.5,23.4c-3,7.7-11.7,16.1-19.1,19.6
			c-9.9,4.7-13-3.6-12.7-10c0.2-5.2,1.2-10.1,3.3-15c2.5-5.7,8.6-17,15.8-18.4C82.4,20.2,75.7,17.9,74.1,18.2L74.1,18.2z"/>
	</g>
	<g>
		<path d="M70.8,42.8c-0.4,3.1-1.7,5.9-2.2,8.9c-0.5,3.3-0.3,6.5-0.2,9.8c0,1.9,6,4.9,6,3.8c0-3.6-0.3-7.2,0.5-10.8
			c0.6-2.7,1.6-5.2,2-8C77,44.8,71,41.3,70.8,42.8L70.8,42.8z"/>
	</g>
	<g>
		<path d="M128.4,40.9c0,5.8-1,13.2,1.3,18.7c1.2,2.9,8.4,2.9,7.2-0.3c-2.1-5.2-1.2-11.9-1.2-17.4C135.7,38.7,128.5,37.8,128.4,40.9
			L128.4,40.9z"/>
	</g>
	<g>
		<path d="M132.1,19.1c-28,0.4-17.7,54.1,8.1,47.2c12.5-3.3,24.1-16.5,18.3-29.9c-4.6-10.6-17.2-15.6-28.1-15.9
			c-1.8-0.1,1.2,6.2,3.3,6.3c7.1,0.2,14.6,2.2,20,7.1c4.2,3.8,0.8,11-1.3,14.9c-2.2,4.1-6.1,6.8-10,9.1c-4.2,2.5-8.9,3.2-13.5,1.7
			c-7.2-2.3-8.9-9.2-8.8-15.8c0.1-9.5,5.4-18.2,15.3-18.4C137.3,25.3,134.2,19,132.1,19.1L132.1,19.1z"/>
	</g>
	<g>
		<path d="M169.6,12.7c-6.7,0.1-13.4,0.9-20.1,0c-5.8-0.7-10.4-2.8-16.5-2.5c-6.1,0.4-11.9,2.2-18.1,2.5c-2.3,0.1-5.9-2.7-8.2-3.4
			c-1.7-0.6-3.6-0.4-5.3-0.2c-4.1,0.5-7.7,3.5-11.1,5.5c-6.5,3.8-13.8-1.5-20.5-2.2c-5.5-0.6-11.4,1.3-16.6,2.8
			c-1.7,0.5-11.8,4.8-13.4,2.9c-2.2-2.7-8.7,0.1-6,3.4c4.9,6,16.1,0.6,21.9-1.2c4.1-1.3,8.3-2.5,12.7-2.4c3.9,0,6.8,2.3,10.5,3
			c5.4,1,10.6,0.5,15.6-1.9c2.1-1,4.1-2.5,6.1-3.7c4.3-2.5,6.9,2.4,10.6,2.8c5.5,0.6,11.1-0.3,16.6-1.4c8.4-1.7,14.7,0.8,22.8,1.8
			c6.5,0.8,13.2-0.2,19.8-0.3C174.7,18,174.1,12.6,169.6,12.7L169.6,12.7z"/>
	</g>
	<g>
		<path d="M32.9,20.1c1.5,3.8,4.8,6.4,8,8.7c1.6,1.1,3.3,2.1,5,3c2.4,1.3,5.2,1.4,7.6,2.6c1.5,0.8,8.6,0.2,5.3-1.5
			c-3.5-1.8-7.2-2.2-10.6-4.4c-3.4-2.1-6.8-4.8-8.3-8.7C39.3,18.2,32.2,18.3,32.9,20.1L32.9,20.1z"/>
	</g>
	<g>
		<path d="M164.8,15.4c-2.3,5.9-8.8,8.3-13.5,11.9c-3.6,2.7,1.4,7.9,4.5,5.4c5.7-4.4,12.9-7.3,15.7-14.4
			C173,14.4,166.3,11.5,164.8,15.4L164.8,15.4z"/>
	</g>
	<g>
		<path d="M73.9,65c-6.1,1.4-9.5,8.4-11.8,13.6c-3.8,8.7-5.7,18-4.4,27.5c1.7,11.7,12.5,19.4,23.4,21c8.2,1.2,17.3,1.4,25.4-0.2
			c8.8-1.7,14.5-8,19.8-14.7c5.8-7.3,10.4-13.9,10.6-23.6c0.2-9.9-6.3-17-10.1-25.4c-0.6-1.2-5.7-6.2-4.3-3.1c3,6.6,7.4,12,9.1,19.2
			c2.1,8.8-1.8,16.9-7,23.6c-3.9,5.1-7.8,10-12.8,14c-5.6,4.5-13.3,5.1-20.2,5.2c-5.4,0.1-11.1-0.3-16.4-1.1
			c-11-1.6-13.8-10.2-13-20.3C63,91.8,68,73,78.5,70.6C79,70.5,76,64.5,73.9,65L73.9,65z"/>
	</g>
	<g>
		<path d="M85.8,108.8c0,3.8,0,7.6,0,11.5c0,3.7,7.2,4.9,7.2,0.9c0-3.8,0-7.6,0-11.5C93,106,85.8,104.8,85.8,108.8L85.8,108.8z"/>
	</g>
	<g>
		<path d="M101,110.5c0,2.8,0,5.5,0,8.3c0,2.3,6,6.2,6,2.8c0-2.8,0-5.5,0-8.3C107,111,101,107.1,101,110.5L101,110.5z"/>
	</g>
	<g>
		<path d="M126.5,114c6.2,0.1,12.3,1.7,18.5,1.5c8.1-0.3,16-3.6,23.6-6.3c7.3-2.7,14.2-6.7,21.6-9.1c7.5-2.5,17.2-1.2,25.1-1.1
			c15,0.2,27,12.5,29,26.7c1.3,9,2.3,23.2-7.1,28.2c-2.7,1.4,1.3,7.5,4.1,6.1c9.9-5.2,9.7-19,9-28.5c-1.1-13.3-5.8-23.5-16.8-31.3
			c-6.1-4.3-12.2-7.2-19.6-7.6c-9.2-0.5-19.9-1.1-28.7,1.8c-9.2,3-17.8,8-27.1,11.1c-5.9,2-11.3,3.7-17.6,3.5
			c-5.1-0.2-10.2-1.3-15.3-1.4C121,107.4,123.7,113.9,126.5,114L126.5,114z"/>
	</g>
	<g>
		<path d="M233.7,159.2c-1,9.1-6.5,17-9.3,25.6c-3.3,10-4,20.8-4.2,31.2c-0.4,20.6,2.4,40.3,5.3,60.7c0.8,5.7-1.2,6.9-6.4,7.7
			c-3.2,0.5-6.4,0.5-9.6,0.7c-7.4,0.5-3.9-23.6-3.5-27.9c2.2-23.5,5-46.8,7.5-70.2c0.5-4.8,2.7-14.1-0.8-18.3
			c-4-4.9-9.9-1.7-13.5,1.9c-5.7,5.7-7.8,15.4-9.9,22.9c-2.8,10.1-2.8,20.9-3.9,31.3c-1.2,10.8-5.6,20.8-5.9,31.7
			c-0.1,4.9,0.8,11-2.1,15.3c-2.3,3.5-12.1,2.3-15.5,2.3c-0.8,0-1.7-0.1-2.5-0.1c-1.9,0.2-2.2,0.1-0.9-0.2c0-1.7,0.6-3.5,1-5.1
			c1.1-4.6,1.9-9.2,2.9-13.8c2.2-10.4,5-20.7,7.4-31.1c1.8-7.7,13.2-50.6-0.9-51c-4.5-0.1-5.5,6.4-0.7,6.5c-1.4,0-1-1.1-0.6,0.5
			c0.2,0.8,0.3,1.7,0.4,2.6c0.2,2.4,0,4.9-0.1,7.4c-0.4,6.2-1.4,12.4-2.4,18.6c-2.1,12.8-5.5,25.3-8.5,37.9
			c-2.1,8.9-4.7,18.2-5.8,27.3c-0.9,7.8,7.3,7.2,12.6,7.2c6.1,0,13,0,18.1-3.7c6.4-4.7,4.8-16.1,5-22.7c0.3-10.7,4.9-20.9,6.1-31.5
			c1.3-11.5,1.7-22.5,5.1-33.6c1.4-4.6,3.1-9.1,5.8-13.2c3.7-5.7,3,3.1,2.8,5.4c-1,11.9-3.1,23.7-4.4,35.6c-2.3,21.2-5,43.1-4,64.5
			c0.3,6.1,2.4,9.7,8.7,10.4c5.7,0.6,13.9-0.2,19.2-2.2c7.6-2.8,7.3-8.7,6.3-15.8c-1.9-13.6-4.5-27-4.9-40.7
			c-0.4-13.2-0.4-26.5,2-39.5c2.2-11.8,10.1-21.8,11.4-33.8C241.4,155.2,234.1,155.1,233.7,159.2L233.7,159.2z"/>
	</g>
	<g>
		<path d="M166,173.3c-10.8,0.1-21.7,1.2-32.4,1.9c-7.7,0.5-13.9,3-15.3,11.1c-0.7,4.2,0.3,8.8,0.9,12.9c0.6,4.7,0.5,9.3,0.5,14
			c0,11.9-0.2,23.1-1.6,34.9c-1,8.5,0.7,17.1-2.7,25.3c-1.5,3.7-9.4,10.2-12,3.4c-1.6-4.1-0.5-9.7,0.1-13.9
			c2.6-20.4,3-41.2,5.1-61.7c0.6-5.3,1.5-10.5,3.6-15.4c0.6-1.5,0.9-2.3-0.2-3.7c-3.5-4.3-10.1-4.1-15.1-4
			c-13.5,0.3-21.8,10.6-25.5,22.7c-4.7,15.3-4.3,31.6-5.5,47.3c-0.6,8,3.4,22.5-5.1,27c-3.2,1.7-7.3,1.6-10.8,1.5
			c-3-0.1-2.5-8.5-2.5-10.5c-0.1-11.4,2.7-22.2,6.7-32.8c5.2-13.8,7.7-26.7,7.8-41.5c0-2.2-6.2-5.5-6.2-3.5
			c-0.1,11.5-1,22.7-4.7,33.6c-3.3,9.8-7.4,18.8-8.9,29.1c-1.3,9-3,23.7,6.4,28.9c4.3,2.4,9.9,1.8,14.5,0.9
			c8.7-1.7,9.2-9.2,9.1-16.7c-0.3-16.9,0.3-35,3.4-51.7c2.9-15.4,10.7-29,27.8-29.5c0.7,0,1.4,0,2.1,0c3.7,1,4,0.5,0.9-1.6
			c-0.6,1.4-1.1,2.7-1.5,4.2c-1.3,4.8-2,9.6-2.6,14.5c-1.3,11.8-2.5,23.5-3.1,35.3c-0.4,8.7-0.9,17.2-2.1,25.9
			c-0.8,6.4-1.1,13,3.4,18c2.9,3.3,8.5,5.7,12.9,4.8c7.7-1.5,9.7-9.6,10.4-16.4c0.4-3.9,0.3-7.9,0.3-11.8c0.1-6.1,1.4-12.1,2-18.2
			c0.5-5.3-0.1-10.7-0.1-16c-0.1-5.7,0.2-11.5-0.3-17.2c-0.9-9.9-4.2-21,8.3-24.1c5.4-1.3,11.5-0.8,17-1.1
			c6.5-0.4,12.8-1.3,19.3-1.3C173.1,178.3,168,173.3,166,173.3L166,173.3z"/>
	</g>
	<g>
		<path d="M62.2,188.1c0.1-5.8-3.3-10.4-5.8-15.3c-3-5.9-4.4-12.6-5.1-19.1c-0.8-6.4-1.5-13.2,1.6-19.1c2.8-5.5,9.3-8.6,14.5-11.3
			c4.1-2.1-2.6-1.2-4.1-0.4c-9.7,5.1-19.4,11-19.6,23.1c-0.2,8.2,1.2,16.7,3.8,24.4c2.3,6.8,7.9,12.6,7.8,20.1
			C55.3,191.3,62.2,190.1,62.2,188.1L62.2,188.1z"/>
	</g>
	<g>
		<path d="M234.1,104.7c12.9,0.1,34.4,3.8,41-10.9c-1.8-1-3.6-2-5.4-3c0.6,13.2-17.7,21.5-27,26.5c-3.2,1.7,0,8.3,3.1,6.6
			c11.8-6.2,30.3-15.6,29.6-31.7c-0.1-2.2-3.8-6.5-5.4-3c-5.6,12.5-26.7,8.6-37.6,8.5C228.7,97.7,230.7,104.7,234.1,104.7
			L234.1,104.7z"/>
	</g>
</g>
</svg>
